<svg width="36" height="36" viewBox="0 0 36 36" fill="none" xmlns="http://www.w3.org/2000/svg">
<path d="M8 3C6.67392 3 5.40215 3.52678 4.46447 4.46447C3.52678 5.40215 3 6.67392 3 8V28C3 29.3261 3.52678 30.5979 4.46447 31.5355C5.40215 32.4732 6.67392 33 8 33H28C29.3261 33 30.5979 32.4732 31.5355 31.5355C32.4732 30.5979 33 29.3261 33 28V8C33 6.67392 32.4732 5.40215 31.5355 4.46447C30.5979 3.52678 29.3261 3 28 3H8ZM20.2233 24.7583C21.4233 25.725 22.62 26.2 23.8167 26.1883C24.55 26.1883 25.1133 26.055 25.5033 25.785C25.6854 25.6668 25.8336 25.5032 25.9333 25.3103C26.0329 25.1174 26.0806 24.9019 26.0717 24.685C26.0741 24.4484 26.0246 24.2142 25.9267 23.9988C25.8288 23.7834 25.6848 23.5921 25.505 23.4383C25.1133 23.0967 24.3733 22.755 23.285 22.4117C21.9783 22.0333 20.9683 21.545 20.26 20.945C19.5633 20.345 19.21 19.5083 19.1967 18.4333C19.1967 17.4183 19.6367 16.57 20.5167 15.885C21.3733 15.2017 22.4667 14.8583 23.8 14.8583C25.6567 14.8583 27.1483 15.31 28.2717 16.215L26.9883 18.2133C26.5263 17.8539 25.9962 17.592 25.43 17.4433C24.9212 17.2732 24.3897 17.1805 23.8533 17.1683C23.22 17.1683 22.7117 17.285 22.3317 17.5167C21.9533 17.75 21.765 18.055 21.765 18.4333C21.765 18.85 21.9967 19.2033 22.46 19.4967C22.9267 19.7783 23.72 20.09 24.8433 20.4317C26.2 20.835 27.1667 21.3733 27.74 22.045C28.315 22.7167 28.6017 23.5733 28.6017 24.6117C28.6017 25.675 28.1933 26.5917 27.3733 27.3617C26.5667 28.12 25.3933 28.5167 23.8533 28.5533C21.8367 28.5533 20.15 27.9483 18.7933 26.7383L20.2233 24.7583ZM11.0067 25.8217C11.3983 26.0667 11.8683 26.1883 12.4183 26.1883C12.9933 26.1883 13.4683 26.0233 13.8483 25.6933C14.2267 25.3517 14.4167 24.7583 14.4167 23.915V15.0783H16.8917V24.3917C16.855 25.8333 16.44 26.8733 15.645 27.5083C15.2112 27.8772 14.7055 28.1519 14.16 28.315C13.6547 28.469 13.1299 28.5492 12.6017 28.5533C11.685 28.5533 10.8717 28.395 10.1633 28.0767C9.405 27.735 8.77 27.13 8.25667 26.2617L9.98 24.85C10.2967 25.2783 10.64 25.6017 11.0067 25.8217Z" fill="#FCBC34"/>
</svg>
