<svg width="36" height="36" viewBox="0 0 36 36" fill="none" xmlns="http://www.w3.org/2000/svg">
<path d="M33 18.5016C33 22.0409 26.2843 24.9095 18 24.9095C9.71571 24.9095 3 22.0409 3 18.5016C3 14.9623 9.71571 12.0938 18 12.0938C26.2843 12.0938 33 14.9623 33 18.5016Z" stroke="#FCBC34"/>
<path d="M10.8558 31.6468C13.9779 33.3342 19.7058 28.8124 23.6529 21.5523C27.5979 14.29 28.2665 7.03844 25.1443 5.35317C22.0222 3.66576 16.2943 8.18759 12.3472 15.4477C8.40221 22.71 7.73363 29.9616 10.8558 31.6468Z" stroke="#FCBC34"/>
<path d="M25.1443 31.6468C22.0222 33.3342 16.2943 28.8124 12.3472 21.5523C8.40221 14.29 7.73363 7.03844 10.8558 5.35317C13.9779 3.66576 19.7058 8.18759 23.6529 15.4477C27.5979 22.71 28.2665 29.9616 25.1443 31.6468Z" stroke="#FCBC34"/>
<path d="M15.8569 18.4992C15.8569 19.0657 16.0827 19.609 16.4846 20.0096C16.8864 20.4102 17.4315 20.6352 17.9998 20.6352C18.5681 20.6352 19.1132 20.4102 19.515 20.0096C19.9169 19.609 20.1426 19.0657 20.1426 18.4992C20.1426 17.9327 19.9169 17.3895 19.515 16.9889C19.1132 16.5883 18.5681 16.3633 17.9998 16.3633C17.4315 16.3633 16.8864 16.5883 16.4846 16.9889C16.0827 17.3895 15.8569 17.9327 15.8569 18.4992Z" stroke="#FCBC34"/>
</svg>
