<svg width="37" height="36" viewBox="0 0 37 36" fill="none" xmlns="http://www.w3.org/2000/svg">
<path d="M18.2217 3C20.1915 3 22.142 3.38799 23.9619 4.14181C25.7818 4.89563 27.4354 6.00052 28.8283 7.3934C30.2212 8.78628 31.3261 10.4399 32.0799 12.2597C32.8337 14.0796 33.2217 16.0302 33.2217 18C33.2217 21.9782 31.6413 25.7936 28.8283 28.6066C26.0152 31.4196 22.1999 33 18.2217 33C16.2519 33 14.3013 32.612 12.4814 31.8582C10.6615 31.1044 9.00796 29.9995 7.61508 28.6066C4.80203 25.7936 3.22168 21.9782 3.22168 18C3.22168 14.0218 4.80203 10.2064 7.61508 7.3934C10.4281 4.58035 14.2434 3 18.2217 3ZM15.2217 22.995C15.4617 23.805 15.4317 24.555 15.2217 25.245C15.2217 25.32 15.1617 25.395 15.1317 25.5C15.1017 25.5 15.0717 25.605 15.0267 25.68C14.8617 26.04 14.6217 26.385 14.3367 26.685C13.4667 27.645 12.2217 28.005 11.7267 27.705C11.1567 27.375 11.4717 26.025 12.4617 24.96C13.5417 23.82 15.1017 23.07 15.1017 23.07L15.2217 22.995ZM27.6267 9.42C26.9517 6.75 22.5267 5.88 18.3567 7.365C15.8667 8.25 13.1667 9.63 11.2317 11.445C8.93668 13.605 8.56168 15.48 8.71168 16.26C9.22168 19.02 13.0317 20.835 14.5917 22.17V22.185C14.1417 22.41 10.7817 24.105 9.97168 25.845C9.16168 27.675 10.1217 28.995 10.7217 29.175C12.7317 29.715 14.7567 28.74 15.8367 27.105C16.8867 25.545 16.8117 23.52 16.3467 22.5C16.9767 22.35 17.7117 22.275 18.6417 22.38C21.2817 22.695 21.7917 24.33 21.6867 25.02C21.5967 25.71 21.0417 26.085 20.8617 26.205C20.6817 26.31 20.6217 26.355 20.6367 26.445C20.6517 26.565 20.7417 26.565 20.8917 26.535C21.1167 26.49 22.2867 25.98 22.3317 24.705C22.3917 23.085 20.8467 21.285 18.1167 21.33C16.9917 21.36 16.2867 21.465 15.7767 21.66L15.6567 21.525C13.9617 19.725 10.8417 18.45 10.9767 16.02C11.0217 15.135 11.3217 12.825 16.9767 10.005C21.5967 7.695 25.3017 8.325 25.9467 9.75C26.8617 11.745 23.9667 15.48 19.1667 16.02C17.3367 16.23 16.3617 15.51 16.1217 15.255C15.8667 15 15.8367 14.955 15.7467 15C15.5817 15.105 15.6867 15.345 15.7467 15.495C15.8817 15.87 16.4817 16.5 17.4717 16.86C18.3567 17.145 20.5167 17.31 23.1117 16.305C26.0217 15.18 28.3017 12.045 27.6267 9.42Z" fill="#FCBC34"/>
</svg>
