<svg width="37" height="36" viewBox="0 0 37 36" fill="none" xmlns="http://www.w3.org/2000/svg">
<path d="M18.0879 9C14.0829 9 11.5929 10.995 10.5879 15C12.0879 13.005 13.8429 12.255 15.8379 12.75C16.9779 13.035 17.8029 13.86 18.7029 14.775C20.1729 16.275 21.8379 18 25.5879 18C29.5929 18 32.0829 16.005 33.0879 12C31.5879 13.995 29.8329 14.745 27.8379 14.25C26.6979 13.965 25.8879 13.14 24.9729 12.225C23.5029 10.725 21.8379 9 18.0879 9ZM10.5879 18C6.58289 18 4.09289 19.995 3.08789 24C4.58789 22.005 6.34289 21.255 8.33789 21.75C9.47789 22.035 10.2879 22.86 11.2029 23.775C12.6729 25.275 14.3379 27 18.0879 27C22.0929 27 24.5829 25.005 25.5879 21C24.0879 22.995 22.3329 23.745 20.3379 23.25C19.1979 22.965 18.3879 22.14 17.4729 21.225C16.0029 19.725 14.3379 18 10.5879 18Z" fill="#FCBC34"/>
</svg>
