<svg width="37" height="36" viewBox="0 0 37 36" fill="none" xmlns="http://www.w3.org/2000/svg">
<path d="M29.8219 4.5H8.10191C7.40174 4.5 6.73025 4.77814 6.23515 5.27324C5.74006 5.76833 5.46191 6.43983 5.46191 7.14V28.86C5.46191 29.5602 5.74006 30.2317 6.23515 30.7268C6.73025 31.2219 7.40174 31.5 8.10191 31.5H29.8219C30.1686 31.5 30.5119 31.4317 30.8322 31.299C31.1525 31.1664 31.4435 30.9719 31.6887 30.7268C31.9338 30.4816 32.1283 30.1906 32.261 29.8703C32.3936 29.55 32.4619 29.2067 32.4619 28.86V7.14C32.4619 6.79331 32.3936 6.45002 32.261 6.12972C32.1283 5.80942 31.9338 5.51838 31.6887 5.27324C31.4435 5.02809 31.1525 4.83363 30.8322 4.70096C30.5119 4.56829 30.1686 4.5 29.8219 4.5ZM21.1219 19.5H17.7469V29.16H15.0619V19.5H11.6869V17.31H21.1219V19.5ZM29.8219 27.42C29.6048 27.8817 29.2549 28.2682 28.8169 28.53C28.3561 28.8136 27.848 29.0118 27.3169 29.115C26.7248 29.2373 26.1215 29.2976 25.5169 29.295C24.8983 29.2945 24.2809 29.2392 23.6719 29.13C23.1543 29.024 22.6509 28.8579 22.1719 28.635V26.07L22.0819 25.98H22.1719V26.085C22.6231 26.437 23.1301 26.7108 23.6719 26.895C24.2129 27.101 24.7881 27.2028 25.3669 27.195C25.6694 27.2003 25.9715 27.1701 26.2669 27.105C26.4888 27.0531 26.7014 26.967 26.8969 26.85C27.05 26.7567 27.1786 26.6281 27.2719 26.475C27.3643 26.3006 27.4049 26.1035 27.3889 25.9069C27.373 25.7102 27.3012 25.5222 27.1819 25.365C27.0409 25.1673 26.8625 24.9991 26.6569 24.87C26.4072 24.6944 26.141 24.5437 25.8619 24.42L24.8569 24C24.0614 23.6723 23.3565 23.1578 22.8019 22.5C22.3378 21.9406 22.0926 21.2316 22.1119 20.505C22.0944 19.953 22.2184 19.4057 22.4719 18.915C22.7139 18.4873 23.053 18.1225 23.4619 17.85C23.9175 17.5469 24.4265 17.3331 24.9619 17.22C25.5472 17.0853 26.1463 17.0198 26.7469 17.025C27.2938 17.0174 27.8405 17.0525 28.3819 17.13C28.8324 17.2004 29.2746 17.316 29.7019 17.475V19.95C29.5045 19.8093 29.2934 19.6887 29.0719 19.59C28.8334 19.4873 28.5878 19.4021 28.3369 19.335C28.0965 19.2646 27.8507 19.2145 27.6019 19.185C27.3724 19.1634 27.1414 19.1634 26.9119 19.185C26.6293 19.1803 26.3471 19.2106 26.0719 19.275C25.8461 19.3223 25.6287 19.4032 25.4269 19.515C25.2694 19.6078 25.1358 19.7362 25.0369 19.89C24.9471 20.0394 24.9004 20.2107 24.9019 20.385C24.8983 20.5711 24.9505 20.7539 25.0519 20.91C25.1751 21.0804 25.3275 21.2276 25.5019 21.345C25.7134 21.5134 25.9452 21.6545 26.1919 21.765L27.1369 22.185C27.5714 22.3646 27.9925 22.5752 28.3969 22.815C28.7525 23.0096 29.0763 23.2575 29.3569 23.55C29.6319 23.8165 29.8467 24.1387 29.9869 24.495C30.1308 24.9045 30.2018 25.336 30.1969 25.77C30.1862 26.3302 30.0585 26.882 29.8219 27.39V27.42Z" fill="#FCBC34"/>
</svg>
