<svg width="36" height="36" viewBox="0 0 36 36" fill="none" xmlns="http://www.w3.org/2000/svg">
<path d="M32.1241 6.30073L24.2252 7.73277L25.5978 3L14.6366 5.13637L14.4658 8.00465L4.86241 6.29727C4.201 6.25899 3.81561 6.73142 4.08871 7.38738L17.9862 31.6286C18.2854 32.1143 18.974 32.1332 19.276 31.6286L32.9033 7.38506C33.2108 6.837 32.7397 6.19459 32.1241 6.30073ZM18.6283 30.964L5.01758 7.22289L14.4129 8.89328L13.97 16.3339L17.8213 15.4498L16.7474 20.6802L19.6729 19.7962L18.2211 26.7855C18.1488 27.2425 18.7473 27.4857 19.0433 26.8315L27.5975 9.85107L23.3759 10.6615L23.9503 8.68122L31.9742 7.22646L18.6283 30.964Z" fill="#FCBC34"/>
</svg>
