<svg width="37" height="36" viewBox="0 0 37 36" fill="none" xmlns="http://www.w3.org/2000/svg">
<path d="M31.5695 26.085L19.4345 32.955V27.6L26.9945 23.445L31.5695 26.085ZM32.3945 25.335V10.965L27.9545 13.5V22.77L32.3945 25.335ZM6.21953 26.085L18.3545 32.94V27.6L10.7945 23.445L6.21953 26.085ZM5.39453 25.335V10.965L9.83453 13.5V22.77L5.39453 25.335ZM5.91953 10.035L18.3545 3V8.175L10.3895 12.555L10.3145 12.585L5.91953 10.035ZM31.8695 10.035L19.4345 3V8.175L27.3995 12.57L27.4595 12.6L31.8695 10.035ZM18.3545 26.385L10.8995 22.275V14.16L18.3545 18.465V26.385ZM19.4345 26.385L26.8895 22.29V14.16L19.4345 18.465V26.385ZM11.3945 13.215L18.8945 9.09L26.3945 13.215L18.8945 17.535L11.3945 13.215Z" fill="#FCBC34"/>
</svg>
