<svg width="37" height="36" viewBox="0 0 37 36" fill="none" xmlns="http://www.w3.org/2000/svg">
<path d="M9.41564 5.40039C7.56668 5.40039 6.20012 6.98066 6.26204 8.69309C6.31964 10.3394 6.24332 12.4708 5.69324 14.21C5.14172 15.9533 4.21004 17.0584 2.68652 17.2004V18.8004C4.21004 18.9424 5.14172 20.0474 5.69324 21.7908C6.24332 23.5285 6.31964 25.6613 6.2606 27.3063C6.20012 29.0201 7.56668 30.6004 9.41708 30.6004H28.3588C30.2078 30.6004 31.5758 29.0201 31.5153 27.3063C31.4563 25.6613 31.5326 23.5285 32.0812 21.7908C32.6342 20.0474 33.5644 18.9424 35.0865 18.8004V17.2004C33.563 17.0584 32.6342 15.9533 32.0812 14.21C31.5326 12.4722 31.4563 10.3394 31.5153 8.69309C31.5758 6.98066 30.2078 5.40039 28.3588 5.40039H9.41564ZM24.6523 20.9121C24.6523 23.2712 22.8508 24.7025 19.86 24.7025H14.7681C14.696 24.7027 14.6245 24.689 14.5577 24.6621C14.491 24.6353 14.4303 24.5959 14.3792 24.5461C14.3281 24.4963 14.2876 24.4372 14.2599 24.3721C14.2323 24.3071 14.218 24.2373 14.218 24.1668V11.834C14.218 11.7635 14.2323 11.6937 14.2599 11.6286C14.2876 11.5636 14.3281 11.5044 14.3792 11.4547C14.4303 11.4049 14.491 11.3655 14.5577 11.3387C14.6245 11.3118 14.696 11.2981 14.7681 11.2983H19.8297C22.3238 11.2983 23.9611 12.6171 23.9611 14.643C23.9611 16.063 22.8595 17.3368 21.4569 17.5589V17.6334C23.3664 17.8373 24.6523 19.1294 24.6523 20.9121ZM19.3041 12.9967H16.4011V17.0008H18.8462C20.7369 17.0008 21.778 16.2584 21.778 14.9298C21.778 13.6856 20.8824 12.9981 19.3041 12.9981V12.9967ZM16.4011 18.5895V23.0027H19.4107C21.3792 23.0027 22.4203 22.2309 22.4203 20.7813C22.4203 19.3332 21.3504 18.5895 19.284 18.5895H16.4011Z" fill="#FCBC34"/>
</svg>
