<svg width="36" height="36" viewBox="0 0 36 36" fill="none" xmlns="http://www.w3.org/2000/svg">
<path fill-rule="evenodd" clip-rule="evenodd" d="M18.4655 1.32154C18.6719 1.2243 18.9113 1.22628 19.1161 1.32692L32.3308 7.82244C32.5891 7.94937 32.7519 8.21286 32.75 8.5006C32.748 8.78833 32.5816 9.04959 32.3217 9.17302L18.8697 15.5607V19.9772C18.9586 19.9872 19.0461 20.0132 19.1277 20.0552L32.1524 26.7417C32.4056 26.8718 32.5634 27.1339 32.5598 27.4186C32.5562 27.7032 32.3917 27.9612 32.1352 28.0847L18.4451 34.6758C18.2382 34.7753 17.9972 34.7747 17.7909 34.6741L4.67118 28.2741C4.41348 28.1484 4.25 27.8867 4.25 27.6V8.49552C4.25 8.20514 4.41763 7.94084 4.68032 7.81707L18.4655 1.32154ZM17.3697 20.5904V15.5491L5.75 9.71163V26.3877L17.3697 20.5904ZM6.69514 27.5924L17.3697 22.2668V32.7997L6.69514 27.5924ZM18.8697 32.8065L30.1257 27.3874L18.8697 21.6088V32.8065ZM6.7137 8.51712L18.129 14.2519L30.2761 8.48386L18.7783 2.83233L6.7137 8.51712Z" fill="#FCBC34"/>
</svg>
