<svg width="37" height="36" viewBox="0 0 37 36" fill="none" xmlns="http://www.w3.org/2000/svg">
<path d="M3 2L5.73036 31.6911L17.9818 35L30.2675 31.679L33 2H3ZM27.3278 8.80237L26.4189 18.6935L26.4216 18.7468L26.4178 18.8697V18.8686L25.7721 25.7846L25.7009 26.3991L18 28.4622L17.994 28.4675L10.3064 26.3927L9.78584 20.6748H13.5557L13.8231 23.5823L18.0011 24.6791L18 24.6812V24.6807L22.1934 23.5684L22.6366 18.8336H13.8704L13.7952 18.0333L13.6238 16.1582L13.5339 15.1513H22.9698L23.313 11.4689H8.94135L8.86613 10.6691L8.69506 8.79343L8.60491 7.78657H27.4176L27.3278 8.80237Z" fill="#FCBC34"/>
</svg>
