<svg width="37" height="36" viewBox="0 0 37 36" fill="none" xmlns="http://www.w3.org/2000/svg">
<path d="M18.8279 3H13.8284C12.5022 3 11.2304 3.52681 10.2927 4.46454C9.35494 5.40227 8.82813 6.6741 8.82812 8.00025C8.82813 9.3264 9.35494 10.5982 10.2927 11.536C11.2304 12.4737 12.5022 13.0005 13.8284 13.0005H18.8279V3Z" stroke="#FCBC34" stroke-width="1.5"/>
<path d="M18.8279 12.998H13.8284C12.5022 12.998 11.2304 13.5249 10.2927 14.4626C9.35494 15.4003 8.82813 16.6721 8.82812 17.9983C8.82813 19.3244 9.35494 20.5963 10.2927 21.534C11.2304 22.4717 12.5022 22.9985 13.8284 22.9985H18.8279V12.998Z" stroke="#FCBC34" stroke-width="1.5"/>
<path d="M28.8286 18.0003C28.8286 19.3264 28.3018 20.5982 27.3641 21.536C26.4263 22.4737 25.1545 23.0005 23.8284 23.0005C22.5022 23.0005 21.2304 22.4737 20.2926 21.536C19.3549 20.5982 18.8281 19.3264 18.8281 18.0003C18.8281 16.6741 19.3549 15.4023 20.2926 14.4645C21.2304 13.5268 22.5022 13 23.8284 13C25.1545 13 26.4263 13.5268 27.3641 14.4645C28.3018 15.4023 28.8286 16.6741 28.8286 18.0003ZM13.8286 23.0013H18.8281V28.0008C18.8278 28.9895 18.5343 29.9559 17.9848 30.7779C17.4353 31.5999 16.6544 32.2404 15.7408 32.6186C14.8272 32.9968 13.822 33.0956 12.8523 32.9025C11.8826 32.7094 10.9919 32.2332 10.2929 31.5339C9.59385 30.8347 9.11784 29.9438 8.92506 28.9741C8.73227 28.0043 8.83137 26.9991 9.20981 26.0857C9.58826 25.1722 10.2291 24.3915 11.0512 23.8422C11.8733 23.2929 12.8399 23.0013 13.8286 23.0013Z" stroke="#FCBC34" stroke-width="1.5"/>
<path d="M18.8276 3H23.8271C25.1533 3 26.4251 3.52681 27.3628 4.46454C28.3006 5.40227 28.8274 6.6741 28.8274 8.00025C28.8274 9.3264 28.3006 10.5982 27.3628 11.536C26.4251 12.4737 25.1533 13.0005 23.8271 13.0005H18.8276V3Z" stroke="#FCBC34" stroke-width="1.5"/>
</svg>
