<svg width="37" height="36" viewBox="0 0 37 36" fill="none" xmlns="http://www.w3.org/2000/svg">
<path d="M33.4329 16.6631L20.3336 3.566C20.1542 3.38656 19.9413 3.24422 19.7069 3.1471C19.4725 3.04999 19.2213 3 18.9676 3C18.7139 3 18.4626 3.04999 18.2283 3.1471C17.9939 3.24422 17.7809 3.38656 17.6016 3.566L14.8827 6.2848L18.3329 9.73486C18.7398 9.59593 19.1775 9.5742 19.5962 9.67213C20.0148 9.77007 20.3975 9.98373 20.7006 10.2887C21.0036 10.5937 21.2148 10.9778 21.3101 11.397C21.4053 11.8163 21.3808 12.2539 21.2392 12.6599L24.5638 15.9862C25.0556 15.813 25.5918 15.8125 26.084 15.9847C26.5762 16.1569 26.995 16.4916 27.2716 16.9337C27.5482 17.3757 27.666 17.8988 27.6057 18.4167C27.5453 18.9346 27.3103 19.4166 26.9395 19.7832C26.5641 20.1609 26.0691 20.3965 25.5393 20.4499C25.0094 20.5032 24.4774 20.371 24.0343 20.0757C23.5911 19.7804 23.2642 19.3403 23.1094 18.8308C22.9546 18.3212 22.9815 17.7738 23.1856 17.2819L20.0861 14.1806V22.3426C20.5572 22.5758 20.9342 22.9634 21.1541 23.4408C21.3741 23.9183 21.4238 24.4567 21.2949 24.9663C21.1661 25.476 20.8664 25.926 20.4459 26.2415C20.0255 26.557 19.5095 26.7189 18.9842 26.7001C18.4588 26.6813 17.9558 26.4831 17.5589 26.1384C17.162 25.7937 16.8952 25.3234 16.803 24.8059C16.7108 24.2884 16.7988 23.7549 17.0523 23.2943C17.3058 22.8338 17.7094 22.4741 18.196 22.2751V14.0381C17.9153 13.923 17.6601 13.7536 17.4452 13.5395C17.2302 13.3254 17.0598 13.0708 16.9437 12.7906C16.8276 12.5103 16.7682 12.2098 16.7688 11.9064C16.7694 11.6031 16.83 11.3028 16.9472 11.023L13.5477 7.62169L4.56601 16.6031C4.38657 16.7825 4.24422 16.9954 4.14711 17.2298C4.04999 17.4641 4 17.7154 4 17.9691C4 18.2228 4.04999 18.474 4.14711 18.7084C4.24422 18.9427 4.38657 19.1557 4.56601 19.335L17.6653 32.434C17.8447 32.6134 18.0576 32.7558 18.292 32.8529C18.5264 32.95 18.7776 33 19.0313 33C19.285 33 19.5363 32.95 19.7706 32.8529C20.005 32.7558 20.218 32.6134 20.3973 32.434L33.4348 19.3969C33.7967 19.0344 34 18.5432 34 18.0309C34 17.5187 33.7967 17.0274 33.4348 16.665" fill="#FCBC34"/>
</svg>
