<svg width="37" height="36" viewBox="0 0 37 36" fill="none" xmlns="http://www.w3.org/2000/svg">
<path d="M22.6834 27.9111L23.6283 26.4631C23.6283 26.4631 21.4836 27.2501 17.9021 27.2501C14.3139 27.2501 12.2037 26.4941 12.2037 26.4941L13.2588 28.0731L13.6294 33.041C13.6294 33.584 15.576 34 17.9878 34C20.3929 34 22.3472 33.584 22.3472 33.041L22.6822 27.9321L22.6834 27.9111ZM23.5949 18.5153C22.4585 18.5783 21.8843 19.7182 21.31 20.9202C21.1018 21.3592 20.3784 23.2392 19.9076 23.0042C19.4324 22.7752 20.5164 21.2332 20.8236 20.3162C20.4708 20.5452 19.1842 21.4472 18.8525 20.6032C18.3194 21.0202 17.1775 21.2442 17.3044 20.1602C17.0206 20.6242 16.3829 21.2592 15.6183 20.9832C14.6155 20.6392 16.2026 17.7643 16.5977 17.9063C16.9905 18.0673 16.5164 18.7073 16.394 18.9633C16.1146 19.5262 15.803 20.2442 16.0111 20.3792C16.3706 20.6392 17.3556 19.4472 17.379 19.4202C17.5582 19.2013 18.0868 17.7853 18.5097 17.9473C18.9327 18.1243 17.4546 20.0042 18.0056 20.3792C18.1157 20.4632 18.5743 20.3432 18.8514 20.0622C19.025 19.9062 18.9672 19.5052 19.5593 18.2293C20.1614 16.9483 20.6945 15.3543 21.1007 15.4733C21.5114 15.5933 21.1764 16.4123 21.025 16.7293C20.335 18.1663 19.1464 20.5212 19.7028 20.3442C20.2593 20.1612 20.5498 20.1612 21.1063 19.5842C21.6628 19.0053 21.6171 18.0473 21.9922 18.0683C22.3528 18.0883 22.305 18.4073 22.2193 18.6253C22.5721 18.2653 23.9232 17.4693 24.2359 18.2453C24.6188 19.1613 22.305 20.5052 22.8792 20.4212C23.4357 20.3642 24.345 19.8442 24.7524 19.3642L25.8197 10.6974C25.8197 10.6974 24.729 11.5004 17.8598 11.5004C10.9961 11.5004 10.0167 10.7194 10.0167 10.7194L10.926 18.6263C11.419 17.3913 12.5732 14.8753 14.3762 14.9743C15.1987 15.0173 16.305 16.4543 15.35 16.4903C14.9494 16.5113 14.9037 15.7713 14.4407 15.6733C14.0857 15.6163 13.6171 15.8563 13.31 16.1373C12.7078 16.6733 11.3734 18.8083 11.5526 19.8702C11.7741 21.2252 13.6394 19.4072 13.9521 18.8703C14.1736 18.4903 14.3294 17.3503 14.7935 17.4703C15.2866 17.5893 14.7524 18.7713 14.3929 19.7872C13.9933 20.9482 13.7908 22.1622 13.31 22.0222C12.8169 21.8812 13.6171 20.3862 13.5715 20.1262C13.1074 20.5272 12.2615 21.4852 11.1541 21.0062L11.7051 25.9381C11.7051 25.9381 13.2176 26.9951 17.7507 26.9951C22.2838 26.9951 23.8598 25.9381 23.8598 25.9381L24.5732 20.2252C23.9933 20.7462 22.1725 21.6412 22.0623 20.6262C21.9766 19.8072 24.039 18.6313 23.5058 18.6053L23.5949 18.5153ZM25.9366 2.89053L21.9889 6.62546L21.2632 9.16142C24.0579 9.31742 26 9.67741 26 10.0824C26 10.6454 22.4174 11.0934 18 11.0934C13.5826 11.0934 10 10.6364 10 10.0784C10 9.52142 13.5826 9.05742 18 9.05742C18.6266 9.05742 19.2521 9.05742 19.8787 9.07842L20.7067 6.04647L24.8971 2.05154C25.0028 1.93154 25.3155 2.03054 25.6049 2.25054C25.8887 2.45353 26.0456 2.70753 25.9577 2.82753V2.86853L25.9366 2.89053ZM20.2437 10.6194C20.2437 10.6194 19.4658 10.6194 19.3389 10.5104C19.3054 10.4777 19.2867 10.4349 19.2866 10.3904C19.2866 10.3114 19.3445 10.2704 19.4201 10.2454L19.4836 10.3444C19.4535 10.3554 19.4435 10.3644 19.438 10.3754C19.438 10.4324 19.9009 10.4704 20.2604 10.4644C20.6155 10.4594 21.0495 10.4324 21.0495 10.3804C21.0495 10.3644 21.0139 10.3494 20.956 10.3334L21.0262 10.2404C21.1196 10.2654 21.1998 10.3174 21.1998 10.4014C21.1998 10.5464 20.9917 10.5734 20.8581 10.5884C20.7012 10.6094 20.2493 10.6204 20.2493 10.6204L20.2437 10.6194Z" fill="#FCBC34"/>
</svg>
