<svg width="37" height="36" viewBox="0 0 37 36" fill="none" xmlns="http://www.w3.org/2000/svg">
<mask id="mask0_1030_464" style="mask-type:luminance" maskUnits="userSpaceOnUse" x="4" y="3" width="30" height="30">
<path d="M4 3H34V33H4V3Z" fill="white"/>
</mask>
<g mask="url(#mask0_1030_464)">
<path d="M18.0175 3.00766C17.9525 3.01391 17.7475 3.03516 17.5625 3.04891C13.3025 3.43391 9.3125 5.73266 6.7825 9.26641C5.38538 11.2061 4.47715 13.4543 4.135 15.8202C4.015 16.6452 4 16.8877 4 18.0052C4 19.1227 4.015 19.3664 4.135 20.1902C4.95 25.8239 8.96 30.5564 14.3963 32.3102C15.37 32.6239 16.3963 32.8377 17.5625 32.9677C18.0175 33.0177 19.9825 33.0177 20.4375 32.9677C22.4512 32.7439 24.1587 32.2452 25.8412 31.3864C26.1 31.2552 26.15 31.2189 26.115 31.1902C25.292 30.1048 24.4774 29.0131 23.6713 27.9152L21.2725 24.6739L18.2675 20.2252C17.2676 18.7372 16.2585 17.2555 15.24 15.7802C15.2287 15.7764 15.2175 17.7527 15.2112 20.1677C15.2025 24.3927 15.1987 24.5627 15.1462 24.6627C15.095 24.7794 15.0037 24.8738 14.8888 24.9289C14.795 24.9764 14.7137 24.9852 14.27 24.9852H13.7625L13.6275 24.9002C13.544 24.8474 13.4762 24.7731 13.4313 24.6852L13.3687 24.5539L13.375 18.6739L13.3837 12.7914L13.475 12.6764C13.5364 12.6045 13.6101 12.544 13.6925 12.4977C13.8125 12.4389 13.8587 12.4339 14.3675 12.4339C14.965 12.4339 15.065 12.4564 15.22 12.6264C15.2637 12.6739 16.8913 15.1264 18.8388 18.0789L24.7562 27.0439L27.1312 30.6414L27.2525 30.5627C28.3955 29.8028 29.4318 28.8935 30.3337 27.8589C32.224 25.6955 33.45 23.0328 33.865 20.1902C33.985 19.3652 34 19.1227 34 18.0052C34 16.8877 33.985 16.6452 33.865 15.8202C33.05 10.1877 29.04 5.45391 23.6037 3.70016C22.5877 3.37712 21.5415 3.15808 20.4813 3.04641C20.1988 3.01641 18.2613 2.98391 18.0188 3.00891L18.0175 3.00766ZM24.1588 12.0827C24.2285 12.1178 24.2905 12.1663 24.3414 12.2255C24.3922 12.2847 24.4308 12.3534 24.455 12.4277C24.4775 12.5027 24.4837 14.1339 24.4775 17.8089L24.4688 23.0814L23.54 21.6564L22.6075 20.2314V16.3989C22.6075 13.9202 22.6188 12.5277 22.6363 12.4602C22.6571 12.3821 22.6935 12.309 22.7433 12.2454C22.7932 12.1818 22.8554 12.129 22.9262 12.0902C23.0475 12.0277 23.0912 12.0227 23.5512 12.0227C23.985 12.0227 24.0613 12.0302 24.1588 12.0827Z" fill="#FCBC34"/>
</g>
</svg>
