<svg width="37" height="36" viewBox="0 0 37 36" fill="none" xmlns="http://www.w3.org/2000/svg">
<mask id="mask0_1030_471" style="mask-type:luminance" maskUnits="userSpaceOnUse" x="3" y="3" width="30" height="30">
<path d="M3 3H33V33H3V3Z" fill="white"/>
</mask>
<g mask="url(#mask0_1030_471)">
<path d="M23.7873 23.7096C24.8936 23.5946 25.7336 22.6309 25.6961 21.4746C25.6774 20.9189 25.4444 20.3919 25.046 20.004C24.6476 19.616 24.1146 19.3972 23.5586 19.3934H23.4811C22.2973 19.4309 21.3811 20.4334 21.4186 21.6284C21.4586 22.2071 21.6873 22.7071 22.0311 23.0534C20.7323 25.6371 18.7473 27.5246 15.7686 29.1046C13.7461 30.1846 11.6461 30.5696 9.54732 30.2996C7.82857 30.0684 6.49232 29.2971 5.65232 28.0259C4.43107 26.1384 4.31732 24.0946 5.34732 22.0521C6.07232 20.5884 7.21857 19.5084 7.94357 18.9696C7.74694 18.3225 7.58133 17.6663 7.44732 17.0034C1.91107 21.0509 2.48482 26.5234 4.16232 29.1059C5.42232 31.0334 7.97982 32.2284 10.8061 32.2284C11.5776 32.2336 12.3469 32.1429 13.0961 31.9584C17.9836 30.9959 21.6861 28.0659 23.7861 23.7109L23.7873 23.7096ZM30.5061 18.9309C27.6048 15.5009 23.3286 13.6121 18.4423 13.6121H17.8311C17.657 13.2651 17.39 12.9733 17.0598 12.7692C16.7296 12.565 16.3493 12.4565 15.9611 12.4559H15.8836C14.7011 12.4946 13.7836 13.4971 13.8223 14.6921C13.8598 15.8484 14.8148 16.7721 15.9598 16.7721H16.0373C16.4405 16.7512 16.8298 16.6173 17.1605 16.3857C17.4911 16.154 17.75 15.834 17.9073 15.4621H18.5948C21.4961 15.4621 24.2448 16.3096 26.7261 17.9671C28.6348 19.2396 30.0098 20.8959 30.7723 22.9009C31.4223 24.5184 31.3848 26.0984 30.6973 27.4484C29.6273 29.4909 27.8336 30.6084 25.4661 30.6084C23.9398 30.6084 22.4886 30.1459 21.7248 29.7984C21.1753 30.2886 20.6021 30.7516 20.0073 31.1859C21.6486 31.9571 23.3286 32.3809 24.9323 32.3809C28.5973 32.3809 31.3073 30.3384 32.3386 28.2959C33.4448 26.0609 33.3686 22.2071 30.5061 18.9309ZM11.1123 24.3646C11.1498 25.5209 12.1048 26.4459 13.2498 26.4459H13.3261C14.5098 26.4084 15.4261 25.4059 15.3886 24.2109C15.3699 23.6551 15.1369 23.1281 14.7385 22.7402C14.3401 22.3523 13.8071 22.1335 13.2511 22.1296H13.1736C13.0828 22.1236 12.9917 22.1364 12.9061 22.1671C11.3411 19.5471 10.6923 16.6959 10.9211 13.6121C11.0736 11.2996 11.8373 9.29586 13.1736 7.63836C14.2811 6.21336 16.4186 5.51961 17.8698 5.48086C21.9161 5.40336 23.6336 10.4909 23.7486 12.5334C24.2448 12.6484 25.0848 12.9184 25.6573 13.1109C25.1986 6.86836 21.3823 3.63086 17.7161 3.63086C14.2811 3.63086 11.1123 6.13586 9.85232 9.83586C8.09607 14.7684 9.24107 19.5084 11.3798 23.2471C11.1886 23.5171 11.0736 23.9409 11.1123 24.3646Z" fill="#FCBC34"/>
</g>
</svg>
