<svg width="37" height="36" viewBox="0 0 37 36" fill="none" xmlns="http://www.w3.org/2000/svg">
<path d="M31.0667 3H6.93333C6.15537 3 5.40926 3.30905 4.85915 3.85915C4.30905 4.40926 4 5.15537 4 5.93333V30.0667C4 30.8446 4.30905 31.5907 4.85915 32.1408C5.40926 32.691 6.15537 33 6.93333 33H31.0667C31.4519 33 31.8333 32.9241 32.1892 32.7767C32.5451 32.6293 32.8685 32.4132 33.1408 32.1408C33.4132 31.8685 33.6293 31.5451 33.7767 31.1892C33.9241 30.8333 34 30.4519 34 30.0667V5.93333C34 5.54812 33.9241 5.16668 33.7767 4.8108C33.6293 4.45491 33.4132 4.13154 33.1408 3.85915C32.8685 3.58677 32.5451 3.3707 32.1892 3.22329C31.8333 3.07587 31.4519 3 31.0667 3ZM21.4 19.6667H17.65V30.4H14.6667V19.6667H10.9167V17.2333H21.4V19.6667ZM31.0667 28.4667C30.8254 28.9797 30.4366 29.4091 29.95 29.7C29.438 30.0151 28.8734 30.2353 28.2833 30.35C27.6254 30.4859 26.9551 30.5529 26.2833 30.55C25.5959 30.5494 24.9099 30.4881 24.2333 30.3667C23.6582 30.2489 23.0989 30.0643 22.5667 29.8167V26.9667L22.4667 26.8667H22.5667V26.9833C23.068 27.3744 23.6313 27.6787 24.2333 27.8833C24.8345 28.1122 25.4735 28.2253 26.1167 28.2167C26.4528 28.2225 26.7884 28.189 27.1167 28.1167C27.3632 28.059 27.5994 27.9634 27.8167 27.8333C27.9868 27.7296 28.1296 27.5868 28.2333 27.4167C28.336 27.2229 28.3811 27.0039 28.3633 26.7854C28.3456 26.5669 28.2658 26.358 28.1333 26.1833C27.9767 25.9637 27.7785 25.7768 27.55 25.6333C27.2726 25.4383 26.9767 25.2708 26.6667 25.1333L25.55 24.6667C24.666 24.3026 23.8828 23.7309 23.2667 23C22.751 22.3784 22.4786 21.5907 22.5 20.7833C22.4806 20.17 22.6183 19.5618 22.9 19.0167C23.1689 18.5415 23.5457 18.1361 24 17.8333C24.5062 17.4965 25.0718 17.259 25.6667 17.1333C26.317 16.9837 26.9827 16.9109 27.65 16.9167C28.2577 16.9082 28.8651 16.9472 29.4667 17.0333C29.9672 17.1116 30.4585 17.24 30.9333 17.4167V20.1667C30.7139 20.0103 30.4794 19.8763 30.2333 19.7667C29.9683 19.6526 29.6954 19.5579 29.4167 19.4833C29.1496 19.4051 28.8764 19.3494 28.6 19.3167C28.345 19.2926 28.0883 19.2926 27.8333 19.3167C27.5193 19.3115 27.2058 19.3451 26.9 19.4167C26.6491 19.4693 26.4076 19.5592 26.1833 19.6833C26.0083 19.7865 25.8599 19.9292 25.75 20.1C25.6502 20.266 25.5983 20.4563 25.6 20.65C25.5959 20.8567 25.654 21.0599 25.7667 21.2333C25.9036 21.4226 26.0728 21.5863 26.2667 21.7167C26.5017 21.9037 26.7592 22.0605 27.0333 22.1833L28.0833 22.65C28.5661 22.8496 29.034 23.0835 29.4833 23.35C29.8785 23.5662 30.2382 23.8416 30.55 24.1667C30.8555 24.4627 31.0942 24.8208 31.25 25.2167C31.4098 25.6717 31.4888 26.1511 31.4833 26.6333C31.4714 27.2558 31.3295 27.8689 31.0667 28.4333V28.4667Z" fill="#FCBC34"/>
</svg>
