<svg width="37" height="36" viewBox="0 0 37 36" fill="none" xmlns="http://www.w3.org/2000/svg">
<mask id="mask0_1030_428" style="mask-type:luminance" maskUnits="userSpaceOnUse" x="3" y="3" width="30" height="30">
<path d="M3 3H33V33H3V3Z" fill="white"/>
</mask>
<g mask="url(#mask0_1030_428)">
<path fill-rule="evenodd" clip-rule="evenodd" d="M32.9931 17.5938C32.7819 9.5375 26.2019 3.01625 18.0056 3C9.51311 2.99375 2.62561 10.085 3.01686 18.695C3.36686 26.465 9.69686 32.815 17.6544 32.9963C26.1669 33.1925 33.2156 26.2463 32.9931 17.5938ZM12.9006 12.4063C12.7194 12.7563 12.5781 13.125 12.4806 13.505C12.4494 13.5275 12.4556 13.5675 12.4406 13.5963C12.4406 13.6588 12.4406 13.7213 12.4231 13.78V14.19C12.4444 14.2525 12.4381 14.315 12.4444 14.3775C12.4806 14.4588 12.4206 14.56 12.5119 14.625C12.6219 15 12.7456 15.3675 12.9456 15.7013C13.0081 15.8063 12.9981 15.8625 12.9069 15.9438C12.4241 16.3723 12.0082 16.8707 11.6731 17.4225C11.0831 18.425 10.8631 19.5213 10.8631 20.6725C10.8636 20.7166 10.8568 20.7606 10.8431 20.8025C10.8274 20.8515 10.8009 20.8964 10.7656 20.9338C10.0044 21.7675 9.59561 22.7175 9.78311 23.8688C9.87811 24.4525 10.0481 25.0063 10.3956 25.4913C10.4742 25.587 10.5139 25.7088 10.5069 25.8325C10.4844 26.3375 10.6869 26.7475 11.1169 27.0063C11.8419 27.445 12.6256 27.6025 13.4606 27.4163C13.518 27.4 13.5737 27.3783 13.6269 27.3513C13.7119 27.3113 13.7981 27.2725 13.8744 27.285C13.9594 27.2975 14.0344 27.3638 14.1106 27.4288C14.1544 27.4663 14.1981 27.5038 14.2444 27.5338C14.7206 27.8188 15.2556 27.8913 15.7919 27.8675C17.0969 27.8125 18.3981 27.7338 19.6931 27.5525C20.1206 27.4938 20.5306 27.3863 20.8806 27.1238C20.9552 27.068 21.039 27.0257 21.1281 26.9988C22.4394 26.5663 23.6931 26.0013 24.8369 25.2413C25.5306 24.7863 26.2581 24.4138 27.0794 24.2313C27.5281 24.1338 27.8544 23.8375 28.0544 23.4213C28.5644 22.3663 27.7831 21.1838 26.5669 21.1725C25.7444 21.1663 24.9881 21.4225 24.2631 21.785C24.001 21.9212 23.7445 22.068 23.4944 22.225C23.2569 22.3688 23.0194 22.5138 22.7706 22.6413L22.7344 22.6625C22.6844 22.6925 22.6306 22.7238 22.5644 22.72V22.595C22.6294 20.8513 22.0631 19.3363 20.9044 18.0375C20.8344 17.96 20.8469 17.91 20.8981 17.835C21.3322 17.2178 21.6816 16.5451 21.9369 15.835C22.3669 14.6188 22.4531 13.37 22.3219 12.1013C22.2594 11.49 22.1344 10.8938 21.8769 10.33C21.6519 9.84875 21.2331 9.62125 20.7144 9.7375C20.5756 9.76625 20.5281 9.725 20.4719 9.61C20.3112 9.25104 20.1152 8.90894 19.8869 8.58875C19.7875 8.45386 19.6588 8.34328 19.5105 8.26533C19.3621 8.18738 19.1981 8.14411 19.0306 8.13875C18.4756 8.1075 18.0931 8.40875 17.7706 8.8125C17.5333 9.11925 17.3405 9.45802 17.1981 9.81875C17.1531 9.9275 17.0981 9.98875 17.0106 10.0213C16.9727 10.0345 16.9332 10.0429 16.8931 10.0463C15.9379 10.1432 15.0469 10.5723 14.3756 11.2588C14.1883 11.4573 13.9553 11.6071 13.6969 11.695C13.3306 11.8163 13.0769 12.0675 12.9006 12.4063Z" fill="#FCBC34"/>
<path d="M21.6836 22.7661C21.6836 23.0686 21.6136 23.3636 21.5761 23.6574C21.5436 23.9161 21.5699 23.9461 21.8324 23.9011C22.4224 23.7986 22.9574 23.5511 23.4711 23.2574C24.0224 22.9436 24.5474 22.5861 25.1361 22.3499C25.5845 22.1578 26.0659 22.0546 26.5536 22.0461C26.9824 22.0461 27.2811 22.2786 27.3336 22.6461C27.3836 22.9861 27.1961 23.3124 26.8536 23.3836C25.8774 23.5911 25.0336 24.0724 24.2124 24.6086C23.1099 25.3199 21.9099 25.8336 20.6611 26.2274C20.6149 26.2399 20.5549 26.2511 20.5261 26.2786C20.2311 26.5911 19.8411 26.6436 19.4474 26.6949C18.3424 26.8399 17.2311 26.9049 16.1161 26.9699C15.7952 26.9998 15.4718 26.9889 15.1536 26.9374C14.6411 26.8374 14.4249 26.6461 14.3474 26.2249C14.2774 25.8486 14.4549 25.4911 14.8324 25.2449L14.9774 25.1536C14.7817 25.0382 14.6122 24.8833 14.4799 24.6986C14.4174 24.6124 14.3849 24.6661 14.3649 24.7374L14.1774 25.4499C14.1349 25.6074 14.0824 25.7624 14.0161 25.9124C13.8261 26.3474 13.4786 26.5574 13.0199 26.5999C12.5597 26.6364 12.0985 26.5433 11.6886 26.3311C11.4011 26.1899 11.3149 25.9774 11.4099 25.6649C11.4599 25.4974 11.5549 25.3524 11.6686 25.1761C11.2724 25.2549 11.0986 25.0249 10.9611 24.7461C10.6512 24.1552 10.5494 23.477 10.6724 22.8211C10.7736 22.2911 11.0849 21.8586 11.4599 21.4849C11.6786 21.2661 11.7449 21.0549 11.7386 20.7474C11.6886 18.9661 12.3611 17.5036 13.7449 16.3736C13.8661 16.2724 13.9886 16.1674 14.1161 16.0749C14.1949 16.0199 14.2036 15.9836 14.1386 15.9024C13.7811 15.4524 13.5024 14.9649 13.3761 14.3974C13.2299 13.7586 13.4474 13.2036 13.7686 12.6724C13.8175 12.606 13.8869 12.5577 13.9661 12.5349C14.3699 12.3899 14.7099 12.1711 15.0186 11.8624C15.7124 11.1686 16.5724 10.8499 17.5561 10.8924C17.6811 10.8986 17.7361 10.8624 17.7749 10.7449C17.9159 10.3144 18.1094 9.90299 18.3511 9.51988C18.4379 9.37405 18.5476 9.2432 18.6761 9.13238C18.9186 8.93238 19.1261 8.96113 19.2886 9.22738C19.5911 9.70988 19.8236 10.2274 20.0586 10.7461C20.1186 10.8774 20.1636 10.9236 20.3011 10.8336C20.4654 10.7355 20.6403 10.6562 20.8224 10.5974C20.9674 10.5474 21.0524 10.5811 21.1149 10.7324C21.2986 11.1749 21.3974 11.6374 21.4524 12.1124C21.4686 12.2436 21.4986 12.3711 21.4824 12.5024C21.4724 12.7874 21.4861 13.0736 21.4886 13.3624C21.4886 13.4899 21.4436 13.6186 21.4824 13.7486C21.4536 14.5286 21.2461 15.2661 20.9449 15.9811C20.6636 16.6499 20.2536 17.2436 19.8436 17.8374C19.6824 18.0661 19.6861 18.0699 19.8961 18.2574C20.9186 19.1786 21.4836 20.3361 21.6711 21.6861C21.6786 21.7386 21.6761 21.7949 21.6761 21.8499C21.6336 21.9749 21.6799 22.0961 21.6824 22.2174C21.6936 22.4024 21.6511 22.5874 21.6824 22.7674L21.6836 22.7661Z" fill="#FCBC34"/>
</g>
</svg>
